<?xml version="1.0" encoding="UTF-8" standalone="no"?>
<!-- Created with Inkscape (http://www.inkscape.org/) -->

<svg
   width="3818.0071"
   height="254.37517"
   viewBox="0 0 1010.181 67.30343"
   version="1.1"
   id="svg1"
   xmlns="http://www.w3.org/2000/svg"
   xmlns:svg="http://www.w3.org/2000/svg">
  <defs
     id="defs1" />
  <g
     id="g4"
     transform="translate(4.1444685,42.938681)">
    <path
       id="last-lap"
       style="fill:#16aa9c;fill-opacity:1;stroke:none;stroke-width:0.760654;stroke-dasharray:none"
       d="m 211.60347,-42.938681 -5.2e-4,3.16e-4 h -50.11051 c -5.96244,-0.0027 -8.32391,0.560708 -11.42902,3.41601 l -31.65065,27.897091 c -3.8609,3.4030271 1.04522,3.6278624 2.41019,3.6278624 h 50.37109 176.04145 c 7.2083,0.036725 7.85831,-0.1709424 11.58831,-3.4585904 l 31.60234,-27.854511 c 3.8609,-3.403028 -1.04522,-3.628178 -2.41019,-3.628178 z" />
    <path
       id="lap-timer"
       style="fill:#0e0ab8;fill-opacity:1;stroke:none;stroke-width:0.641352;stroke-dasharray:none"
       d="m 403.36589,-36.587177 c -0.0577,0 -0.18134,0.01363 -0.25271,0.01489 -2.11492,0.02027 -2.42522,0.169942 -3.81947,1.398854 l -28.37314,24.991883 c -0.93178,0.821276 -1.21731,1.4045192 -1.18123,1.8451045 0.002,0.083661 0.0373,0.1806002 0.0649,0.2755152 0.0225,0.045118 0.0294,0.096636 0.0605,0.1374924 0.15101,0.3730236 0.44146,0.803098 1.07272,1.3594946 l 28.37315,24.9918843 c 0.43781,0.397737 1.70456,1.378577 3.81947,1.398853 0.0715,0.0012 0.19504,0.01489 0.25272,0.01489 h 148.74363 l 4.3e-4,-2.67e-4 h 45.41579 c 0.11961,0 0.16969,-0.0032 0.28061,-0.0032 h 0.45097 c 0.0245,0 0.0804,-0.0062 0.10761,-0.0064 2.25163,-0.01491 2.53899,-0.144359 3.965,-1.40045 l 28.37229,-24.9916212 c 0.9344,-0.8230628 1.21781,-1.4071641 1.17992,-1.8480303 -8.5e-4,-0.087341 -0.0373,-0.1886105 -0.0671,-0.2882808 -0.0201,-0.038172 -0.0255,-0.082478 -0.0518,-0.1175465 -0.14842,-0.3751043 -0.44034,-0.808925 -1.07795,-1.3709292 l -28.37235,-24.991911 c -1.4254,-1.256355 -1.71338,-1.385538 -3.96501,-1.40045 -0.0271,-1.98e-4 -0.083,-0.0064 -0.10761,-0.0064 h -0.45097 c -0.11092,-6.1e-5 -0.161,-0.0032 -0.28061,-0.0032 h -45.4158 l -4.3e-4,-2.67e-4 z" />
    <path
       style="fill:#0bc770;fill-opacity:1;stroke:none;stroke-width:0.760654;stroke-dasharray:none"
       d="m 143.04581,-42.938599 c 6.63767,0.07099 5.25944,2.485501 3.49433,3.989714 L 80.359531,19.851679 c -2.518313,2.237487 -6.12775,4.413286 -11.02226,4.485021 -3.64206,0.05337 -3.67408,0 -3.67408,0 l -69.8076598,2.33e-4 v -67.275532 z"
       id="position-counter" />
    <path
       id="previous-lap"
       style="fill:#7c16aa;fill-opacity:1;stroke:none;stroke-width:0.760654;stroke-dasharray:none"
       d="m 790.28853,-42.934343 5.2e-4,3.17e-4 h 50.11051 c 5.96244,-0.0024 8.32391,0.560706 11.42902,3.416005 l 31.65065,27.897095 c 3.8609,3.4030294 -1.04522,3.627861 -2.41019,3.627861 H 830.69795 654.6565 c -7.2083,0.036744 -7.85831,-0.1709431 -11.58831,-3.45859 l -31.60234,-27.85451 c -3.8609,-3.403029 1.04522,-3.628178 2.41019,-3.628178 z" />
    <path
       style="fill:#c70b4d;fill-opacity:1;stroke:none;stroke-width:0.760654;stroke-dasharray:none"
       d="m 858.84619,-42.934264 c -6.63767,0.071 -5.25944,2.485502 -3.49433,3.989718 l 66.18061,58.80056 c 2.51831,2.237488 6.12775,4.413287 11.02226,4.485023 3.64206,0.05335 3.67408,0 3.67408,0 l 69.80769,-0.0041 v -67.275532 z"
       id="lap-counter" />
  </g>
</svg>
