<?xml version="1.0" encoding="UTF-8" standalone="no"?>
<!-- Created with Inkscape (http://www.inkscape.org/) -->

<svg
   width="3818.0071"
   height="416.76358"
   viewBox="0 0 1010.181 110.2687"
   version="1.1"
   id="svg1"
   xmlns="http://www.w3.org/2000/svg"
   xmlns:svg="http://www.w3.org/2000/svg">
  <defs
     id="defs1" />
  <g
     id="g4"
     transform="translate(4.1444685,42.938681)">
    <path
       id="last-lap"
       style="fill:#16aa9c;fill-opacity:1;stroke:none;stroke-width:0.973632;stroke-dasharray:none"
       d="m 211.60347,-42.938681 -5.2e-4,5.17e-4 h -50.11051 c -5.96244,-0.0044 -8.32391,0.918655 -11.42902,5.596729 L 118.41277,8.3646478 c -3.8609,5.5754572 1.04522,5.9438232 2.41019,5.9438232 h 50.37109 176.04145 c 7.2083,0.06017 7.85831,-0.280069 11.58831,-5.6664919 l 31.60234,-45.6363201 c 3.8609,-5.575458 -1.04522,-5.94434 -2.41019,-5.94434 z" />
    <path
       id="lap-timer"
       style="fill:#0e0ab8;fill-opacity:1;stroke:none;stroke-width:0.820926;stroke-dasharray:none"
       d="m 403.36589,-32.532494 c -0.0577,0 -0.18134,0.02233 -0.25271,0.0244 -2.11492,0.03321 -2.42522,0.278429 -3.81947,2.291857 l -28.37314,40.946242 c -0.93178,1.345564 -1.21731,2.301139 -1.18123,3.022986 0.002,0.137068 0.0373,0.295892 0.0649,0.451399 0.0225,0.07392 0.0294,0.158327 0.0605,0.225265 0.15101,0.611155 0.44146,1.315781 1.07272,2.227371 l 28.37315,40.946245 c 1.39423,2.013429 1.70456,2.258636 3.81947,2.291856 0.0715,0.002 0.19504,0.0244 0.25272,0.0244 h 148.74363 l 4.3e-4,-4.37e-4 h 45.41579 c 0.11961,0 0.16969,-0.0052 0.28061,-0.0052 h 0.45097 c 0.0245,0 0.0804,-0.01014 0.10761,-0.01046 2.25163,-0.02443 2.53899,-0.236515 3.965,-2.294471 l 28.37229,-40.945815 c 0.9344,-1.348491 1.21781,-2.305472 1.17992,-3.027779 -8.5e-4,-0.143098 -0.0373,-0.309016 -0.0671,-0.472314 -0.0201,-0.06254 -0.0255,-0.135131 -0.0518,-0.192586 -0.14842,-0.614564 -0.44034,-1.325328 -1.07795,-2.246106 L 602.32985,-30.22193 c -1.4254,-2.058388 -1.71338,-2.27004 -3.96501,-2.294471 -0.0271,-3.24e-4 -0.083,-0.01046 -0.10761,-0.01046 h -0.45097 c -0.11092,-9.9e-5 -0.161,-0.0052 -0.28061,-0.0052 h -45.4158 l -4.3e-4,-4.37e-4 z" />
    <path
       style="fill:#0bc770;fill-opacity:1;stroke:none;stroke-width:0.973632;stroke-dasharray:none"
       d="M 12.281531,-42.938547 H 143.04581 c 6.63767,0.116315 5.25944,4.0722 3.49433,6.536675 L 80.359531,59.935894 c -2.518313,3.665858 -6.12775,7.230647 -11.02226,7.348176 -3.64206,0.08744 -3.67408,0 -3.67408,0 h -53.38143 c -9.7392578,0 -16.4262298,-8.216755 -16.4262298,-18.370439 v -72.761178 c 0,-11.342181 6.7565598,-19.091 16.4259998,-19.091 z"
       id="position-counter" />
    <path
       id="previous-lap"
       style="fill:#7c16aa;fill-opacity:1;stroke:none;stroke-width:0.973632;stroke-dasharray:none"
       d="m 790.28853,-42.931574 5.2e-4,5.2e-4 h 50.11051 c 5.96244,-0.004 8.32391,0.91865 11.42902,5.59672 l 31.65065,45.7060896 c 3.8609,5.5754604 -1.04522,5.9438204 -2.41019,5.9438204 H 830.69795 654.6565 c -7.2083,0.0602 -7.85831,-0.28007 -11.58831,-5.6664904 L 611.46585,-36.987234 c -3.8609,-5.57546 1.04522,-5.94434 2.41019,-5.94434 z" />
    <path
       style="fill:#c70b4d;fill-opacity:1;stroke:none;stroke-width:0.973632;stroke-dasharray:none"
       d="M 989.61047,-42.931444 H 858.84619 c -6.63767,0.11632 -5.25944,4.0722 -3.49433,6.53668 l 66.18061,96.33776 c 2.51831,3.66586 6.12775,7.23065 11.02226,7.34818 3.64206,0.0874 3.67408,0 3.67408,0 h 53.38143 c 9.73926,0 16.42626,-8.21676 16.42626,-18.37044 v -72.76118 c 0,-11.34218 -6.75659,-19.091 -16.42603,-19.091 z"
       id="lap-counter" />
  </g>
</svg>
